<mxfile host="app.diagrams.net" modified="2023-04-18T07:25:25.655Z" agent="Mozilla/5.0 (Windows NT 10.0; Win64; x64) AppleWebKit/537.36 (KHTML, like Gecko) Chrome/112.0.0.0 Safari/537.36" etag="0nCCHxt9b8CnekdWPUAG" version="21.1.8" type="device">
  <diagram name="Page-1" id="huHm5sJX_M2mSYigiXjZ">
    <mxGraphModel dx="278" dy="189" grid="1" gridSize="10" guides="1" tooltips="1" connect="1" arrows="1" fold="1" page="1" pageScale="1" pageWidth="827" pageHeight="1169" math="0" shadow="0">
      <root>
        <mxCell id="0" />
        <mxCell id="1" parent="0" />
        <mxCell id="qlBSuscofpIT4ipNYnHG-2" value="&lt;p style=&quot;line-height: 190%;&quot;&gt;&lt;font color=&quot;#1c3aff&quot; style=&quot;font-size: 12px;&quot;&gt;SeS1&lt;/font&gt;&lt;/p&gt;" style="whiteSpace=wrap;html=1;aspect=fixed;fillColor=#e1d5e7;strokeColor=#9673a6;textOpacity=50;labelPosition=center;verticalLabelPosition=top;align=center;verticalAlign=bottom;fontSize=9;" parent="1" vertex="1">
          <mxGeometry x="161.6" y="40.04" width="72" height="72" as="geometry" />
        </mxCell>
        <mxCell id="hszMQZdKSLgJRzkdsVp9-12" value="&lt;font style=&quot;font-size: 18px;&quot;&gt;GP&lt;/font&gt;" style="whiteSpace=wrap;html=1;aspect=fixed;fillColor=#dae8fc;strokeColor=#6c8ebf;textOpacity=50;" parent="1" vertex="1">
          <mxGeometry x="401.6" y="1139" width="40" height="40" as="geometry" />
        </mxCell>
        <mxCell id="hszMQZdKSLgJRzkdsVp9-13" value="&lt;font style=&quot;font-size: 9px;&quot;&gt;GP_A&lt;br style=&quot;font-size: 9px;&quot;&gt;&lt;/font&gt;" style="whiteSpace=wrap;html=1;aspect=fixed;fillColor=#dae8fc;strokeColor=#6c8ebf;textOpacity=50;horizontal=1;verticalAlign=bottom;labelPosition=center;verticalLabelPosition=top;align=center;fontSize=9;" parent="1" vertex="1">
          <mxGeometry x="41.599999999999994" y="899" width="40" height="40" as="geometry" />
        </mxCell>
        <mxCell id="hszMQZdKSLgJRzkdsVp9-14" value="&lt;font style=&quot;font-size: 18px;&quot;&gt;GP&lt;/font&gt;" style="whiteSpace=wrap;html=1;aspect=fixed;fillColor=#dae8fc;strokeColor=#6c8ebf;textOpacity=50;" parent="1" vertex="1">
          <mxGeometry x="401.6" y="899" width="40" height="40" as="geometry" />
        </mxCell>
        <mxCell id="hszMQZdKSLgJRzkdsVp9-15" value="&lt;font style=&quot;font-size: 18px;&quot;&gt;GP&lt;/font&gt;" style="whiteSpace=wrap;html=1;aspect=fixed;fillColor=#dae8fc;strokeColor=#6c8ebf;textOpacity=50;" parent="1" vertex="1">
          <mxGeometry x="521.6" y="899" width="40" height="40" as="geometry" />
        </mxCell>
        <mxCell id="hszMQZdKSLgJRzkdsVp9-16" value="&lt;font style=&quot;font-size: 9px;&quot;&gt;GS_B&lt;/font&gt;" style="whiteSpace=wrap;html=1;aspect=fixed;fillColor=#e1d5e7;strokeColor=#9673a6;textOpacity=50;labelPosition=center;verticalLabelPosition=top;align=center;verticalAlign=bottom;fontSize=9;" parent="1" vertex="1">
          <mxGeometry x="161.6" y="899" width="40" height="40" as="geometry" />
        </mxCell>
        <mxCell id="hszMQZdKSLgJRzkdsVp9-17" value="&lt;font style=&quot;font-size: 10px;&quot;&gt;GS_C&lt;/font&gt;" style="whiteSpace=wrap;html=1;aspect=fixed;fillColor=#e1d5e7;strokeColor=#9673a6;textOpacity=50;labelPosition=center;verticalLabelPosition=top;align=center;verticalAlign=bottom;fontSize=10;" parent="1" vertex="1">
          <mxGeometry x="281.6" y="899" width="40" height="40" as="geometry" />
        </mxCell>
        <mxCell id="hszMQZdKSLgJRzkdsVp9-18" value="&lt;font style=&quot;font-size: 18px;&quot;&gt;GS&lt;/font&gt;" style="whiteSpace=wrap;html=1;aspect=fixed;fillColor=#e1d5e7;strokeColor=#9673a6;align=center;textOpacity=40;" parent="1" vertex="1">
          <mxGeometry x="401.6" y="1019" width="40" height="40" as="geometry" />
        </mxCell>
        <mxCell id="hszMQZdKSLgJRzkdsVp9-20" value="" style="shape=link;html=1;rounded=0;entryX=0.5;entryY=0;entryDx=0;entryDy=0;exitX=0.5;exitY=1;exitDx=0;exitDy=0;" parent="1" source="hszMQZdKSLgJRzkdsVp9-18" target="hszMQZdKSLgJRzkdsVp9-12" edge="1">
          <mxGeometry width="100" relative="1" as="geometry">
            <mxPoint x="241.6" y="1038.58" as="sourcePoint" />
            <mxPoint x="341.6" y="1038.58" as="targetPoint" />
          </mxGeometry>
        </mxCell>
        <mxCell id="hszMQZdKSLgJRzkdsVp9-21" value="" style="shape=link;html=1;rounded=0;entryX=0.5;entryY=1;entryDx=0;entryDy=0;exitX=0.5;exitY=0;exitDx=0;exitDy=0;" parent="1" source="hszMQZdKSLgJRzkdsVp9-18" target="hszMQZdKSLgJRzkdsVp9-18" edge="1">
          <mxGeometry width="100" relative="1" as="geometry">
            <mxPoint x="411.6" y="989" as="sourcePoint" />
            <mxPoint x="411.6" y="1069" as="targetPoint" />
            <Array as="points">
              <mxPoint x="411.6" y="1029" />
              <mxPoint x="411.6" y="1039" />
              <mxPoint x="411.6" y="1049" />
            </Array>
          </mxGeometry>
        </mxCell>
        <mxCell id="hszMQZdKSLgJRzkdsVp9-22" value="" style="shape=link;html=1;rounded=0;entryX=0.5;entryY=1;entryDx=0;entryDy=0;exitX=0.5;exitY=0;exitDx=0;exitDy=0;" parent="1" source="hszMQZdKSLgJRzkdsVp9-18" target="hszMQZdKSLgJRzkdsVp9-18" edge="1">
          <mxGeometry width="100" relative="1" as="geometry">
            <mxPoint x="461.6" y="1029" as="sourcePoint" />
            <mxPoint x="461.6" y="1109" as="targetPoint" />
          </mxGeometry>
        </mxCell>
        <mxCell id="hszMQZdKSLgJRzkdsVp9-23" value="" style="shape=link;html=1;rounded=0;exitX=0.5;exitY=1;exitDx=0;exitDy=0;" parent="1" source="hszMQZdKSLgJRzkdsVp9-14" edge="1">
          <mxGeometry width="100" relative="1" as="geometry">
            <mxPoint x="421.5" y="939" as="sourcePoint" />
            <mxPoint x="421.6" y="1019" as="targetPoint" />
          </mxGeometry>
        </mxCell>
        <mxCell id="hszMQZdKSLgJRzkdsVp9-24" value="" style="shape=link;html=1;rounded=0;entryX=0.253;entryY=0.977;entryDx=0;entryDy=0;exitX=0.5;exitY=0;exitDx=0;exitDy=0;entryPerimeter=0;" parent="1" target="hszMQZdKSLgJRzkdsVp9-12" edge="1">
          <mxGeometry width="100" relative="1" as="geometry">
            <mxPoint x="421.6" y="1139" as="sourcePoint" />
            <mxPoint x="421.6" y="1179" as="targetPoint" />
            <Array as="points">
              <mxPoint x="411.6" y="1149" />
              <mxPoint x="411.6" y="1159" />
              <mxPoint x="411.6" y="1169" />
            </Array>
          </mxGeometry>
        </mxCell>
        <mxCell id="hszMQZdKSLgJRzkdsVp9-25" value="" style="shape=link;html=1;rounded=0;entryX=0.5;entryY=1;entryDx=0;entryDy=0;exitX=0.5;exitY=0;exitDx=0;exitDy=0;" parent="1" edge="1">
          <mxGeometry width="100" relative="1" as="geometry">
            <mxPoint x="421.6" y="1139" as="sourcePoint" />
            <mxPoint x="421.6" y="1179" as="targetPoint" />
          </mxGeometry>
        </mxCell>
        <mxCell id="hszMQZdKSLgJRzkdsVp9-26" value="&lt;pre style=&quot;line-height: 10%;&quot;&gt;&lt;br&gt;&lt;/pre&gt;" style="shape=link;html=1;rounded=0;exitX=1;exitY=0.5;exitDx=0;exitDy=0;entryX=0.01;entryY=0.277;entryDx=0;entryDy=0;entryPerimeter=0;" parent="1" target="hszMQZdKSLgJRzkdsVp9-13" edge="1">
          <mxGeometry x="-0.0035" width="100" relative="1" as="geometry">
            <mxPoint x="81.6" y="920" as="sourcePoint" />
            <mxPoint x="41.599999999999994" y="920" as="targetPoint" />
            <Array as="points">
              <mxPoint x="71.6" y="910" />
              <mxPoint x="51.599999999999994" y="910" />
            </Array>
            <mxPoint as="offset" />
          </mxGeometry>
        </mxCell>
        <mxCell id="hszMQZdKSLgJRzkdsVp9-27" value="" style="shape=link;html=1;rounded=0;entryX=0;entryY=0.5;entryDx=0;entryDy=0;exitX=1;exitY=0.5;exitDx=0;exitDy=0;" parent="1" source="hszMQZdKSLgJRzkdsVp9-13" target="hszMQZdKSLgJRzkdsVp9-13" edge="1">
          <mxGeometry width="100" relative="1" as="geometry">
            <mxPoint x="66.46000000000001" y="869" as="sourcePoint" />
            <mxPoint x="66.46000000000001" y="909" as="targetPoint" />
          </mxGeometry>
        </mxCell>
        <mxCell id="hszMQZdKSLgJRzkdsVp9-28" value="" style="shape=link;html=1;rounded=0;exitX=1;exitY=0.5;exitDx=0;exitDy=0;" parent="1" edge="1">
          <mxGeometry width="100" relative="1" as="geometry">
            <mxPoint x="201.6" y="919.92" as="sourcePoint" />
            <mxPoint x="161.6" y="919.92" as="targetPoint" />
            <Array as="points">
              <mxPoint x="191.6" y="909.92" />
              <mxPoint x="171.6" y="909.92" />
            </Array>
          </mxGeometry>
        </mxCell>
        <mxCell id="hszMQZdKSLgJRzkdsVp9-29" value="" style="shape=link;html=1;rounded=0;entryX=0;entryY=0.5;entryDx=0;entryDy=0;exitX=1;exitY=0.5;exitDx=0;exitDy=0;" parent="1" edge="1">
          <mxGeometry width="100" relative="1" as="geometry">
            <mxPoint x="201.6" y="918.92" as="sourcePoint" />
            <mxPoint x="161.6" y="918.92" as="targetPoint" />
          </mxGeometry>
        </mxCell>
        <mxCell id="IKHvNDyqHvziznPEMNeW-1" value="" style="shape=link;html=1;rounded=0;exitX=1;exitY=0.5;exitDx=0;exitDy=0;entryX=0;entryY=0.5;entryDx=0;entryDy=0;" parent="1" source="hszMQZdKSLgJRzkdsVp9-16" target="hszMQZdKSLgJRzkdsVp9-17" edge="1">
          <mxGeometry width="100" relative="1" as="geometry">
            <mxPoint x="231.6" y="939" as="sourcePoint" />
            <mxPoint x="231.6" y="1019" as="targetPoint" />
          </mxGeometry>
        </mxCell>
        <mxCell id="IKHvNDyqHvziznPEMNeW-4" value="" style="shape=link;html=1;rounded=0;exitX=1;exitY=0.5;exitDx=0;exitDy=0;entryX=0;entryY=0.5;entryDx=0;entryDy=0;" parent="1" edge="1">
          <mxGeometry width="100" relative="1" as="geometry">
            <mxPoint x="81.6" y="918.77" as="sourcePoint" />
            <mxPoint x="161.6" y="918.77" as="targetPoint" />
          </mxGeometry>
        </mxCell>
        <mxCell id="IKHvNDyqHvziznPEMNeW-5" value="" style="shape=link;html=1;rounded=0;exitX=1;exitY=0.5;exitDx=0;exitDy=0;entryX=0;entryY=0.5;entryDx=0;entryDy=0;startArrow=none;" parent="1" source="IKHvNDyqHvziznPEMNeW-82" edge="1">
          <mxGeometry width="100" relative="1" as="geometry">
            <mxPoint x="321.6" y="918.77" as="sourcePoint" />
            <mxPoint x="401.6" y="918.77" as="targetPoint" />
          </mxGeometry>
        </mxCell>
        <mxCell id="IKHvNDyqHvziznPEMNeW-6" value="" style="shape=link;html=1;rounded=0;exitX=1;exitY=0.5;exitDx=0;exitDy=0;entryX=0;entryY=0.5;entryDx=0;entryDy=0;" parent="1" edge="1">
          <mxGeometry width="100" relative="1" as="geometry">
            <mxPoint x="441.6" y="918.77" as="sourcePoint" />
            <mxPoint x="521.6" y="918.77" as="targetPoint" />
          </mxGeometry>
        </mxCell>
        <mxCell id="IKHvNDyqHvziznPEMNeW-11" value="AB_F" style="group;labelPosition=center;verticalLabelPosition=top;align=center;verticalAlign=bottom;fontSize=9;textOpacity=50;" parent="1" vertex="1" connectable="0">
          <mxGeometry x="81.6" y="888" width="10" height="21" as="geometry" />
        </mxCell>
        <mxCell id="IKHvNDyqHvziznPEMNeW-9" value="" style="rounded=0;whiteSpace=wrap;html=1;opacity=40;fillColor=#545454;strokeColor=#666666;fontColor=#333333;" parent="IKHvNDyqHvziznPEMNeW-11" vertex="1">
          <mxGeometry width="10" height="21" as="geometry" />
        </mxCell>
        <mxCell id="IKHvNDyqHvziznPEMNeW-7" value="" style="ellipse;whiteSpace=wrap;html=1;aspect=fixed;fillColor=#f8cecc;strokeColor=#b85450;" parent="IKHvNDyqHvziznPEMNeW-11" vertex="1">
          <mxGeometry y="0.9130434782608695" width="9.130434782608695" height="9.130434782608695" as="geometry" />
        </mxCell>
        <mxCell id="IKHvNDyqHvziznPEMNeW-8" value="" style="ellipse;whiteSpace=wrap;html=1;aspect=fixed;fillColor=#d5e8d4;strokeColor=#82b366;" parent="IKHvNDyqHvziznPEMNeW-11" vertex="1">
          <mxGeometry x="0.42999999999999994" y="11.869565217391303" width="9.130434782608695" height="9.130434782608695" as="geometry" />
        </mxCell>
        <mxCell id="IKHvNDyqHvziznPEMNeW-13" value="BA_F" style="group;fontSize=9;labelPosition=center;verticalLabelPosition=top;align=center;verticalAlign=bottom;textOpacity=50;" parent="1" vertex="1" connectable="0">
          <mxGeometry x="150.6" y="888" width="10" height="21" as="geometry" />
        </mxCell>
        <mxCell id="IKHvNDyqHvziznPEMNeW-14" value="" style="rounded=0;whiteSpace=wrap;html=1;opacity=40;fillColor=#545454;strokeColor=#666666;fontColor=#333333;" parent="IKHvNDyqHvziznPEMNeW-13" vertex="1">
          <mxGeometry width="10" height="21" as="geometry" />
        </mxCell>
        <mxCell id="IKHvNDyqHvziznPEMNeW-15" value="" style="ellipse;whiteSpace=wrap;html=1;aspect=fixed;fillColor=#f8cecc;strokeColor=#b85450;" parent="IKHvNDyqHvziznPEMNeW-13" vertex="1">
          <mxGeometry y="0.9130434782608695" width="9.130434782608695" height="9.130434782608695" as="geometry" />
        </mxCell>
        <mxCell id="IKHvNDyqHvziznPEMNeW-16" value="" style="ellipse;whiteSpace=wrap;html=1;aspect=fixed;fillColor=#d5e8d4;strokeColor=#82b366;" parent="IKHvNDyqHvziznPEMNeW-13" vertex="1">
          <mxGeometry x="0.42999999999999994" y="11.869565217391303" width="9.130434782608695" height="9.130434782608695" as="geometry" />
        </mxCell>
        <mxCell id="IKHvNDyqHvziznPEMNeW-21" value="BC_F" style="rounded=0;whiteSpace=wrap;html=1;opacity=40;fillColor=#545454;strokeColor=#666666;fontColor=#333333;labelPosition=center;verticalLabelPosition=top;align=center;verticalAlign=bottom;fontSize=10;textOpacity=50;" parent="1" vertex="1">
          <mxGeometry x="201.6" y="888" width="10" height="21" as="geometry" />
        </mxCell>
        <mxCell id="IKHvNDyqHvziznPEMNeW-22" value="" style="ellipse;whiteSpace=wrap;html=1;aspect=fixed;fillColor=#f8cecc;strokeColor=#b85450;" parent="1" vertex="1">
          <mxGeometry x="201.6" y="888.9130434782609" width="9.130434782608695" height="9.130434782608695" as="geometry" />
        </mxCell>
        <mxCell id="IKHvNDyqHvziznPEMNeW-23" value="" style="ellipse;whiteSpace=wrap;html=1;aspect=fixed;fillColor=#d5e8d4;strokeColor=#82b366;" parent="1" vertex="1">
          <mxGeometry x="202.03" y="899.8695652173913" width="9.130434782608695" height="9.130434782608695" as="geometry" />
        </mxCell>
        <mxCell id="IKHvNDyqHvziznPEMNeW-24" value="" style="group" parent="1" vertex="1" connectable="0">
          <mxGeometry x="270.6" y="888" width="10" height="21" as="geometry" />
        </mxCell>
        <mxCell id="IKHvNDyqHvziznPEMNeW-25" value="" style="rounded=0;whiteSpace=wrap;html=1;opacity=40;fillColor=#545454;strokeColor=#666666;fontColor=#333333;" parent="IKHvNDyqHvziznPEMNeW-24" vertex="1">
          <mxGeometry width="10" height="21" as="geometry" />
        </mxCell>
        <mxCell id="IKHvNDyqHvziznPEMNeW-26" value="" style="ellipse;whiteSpace=wrap;html=1;aspect=fixed;fillColor=#f8cecc;strokeColor=#b85450;" parent="IKHvNDyqHvziznPEMNeW-24" vertex="1">
          <mxGeometry y="0.9130434782608695" width="9.130434782608695" height="9.130434782608695" as="geometry" />
        </mxCell>
        <mxCell id="IKHvNDyqHvziznPEMNeW-27" value="" style="ellipse;whiteSpace=wrap;html=1;aspect=fixed;fillColor=#d5e8d4;strokeColor=#82b366;" parent="IKHvNDyqHvziznPEMNeW-24" vertex="1">
          <mxGeometry x="0.42999999999999994" y="11.869565217391303" width="9.130434782608695" height="9.130434782608695" as="geometry" />
        </mxCell>
        <mxCell id="IKHvNDyqHvziznPEMNeW-32" value="" style="rounded=0;whiteSpace=wrap;html=1;opacity=40;fillColor=#545454;strokeColor=#666666;fontColor=#333333;" parent="1" vertex="1">
          <mxGeometry x="322.6" y="887" width="10" height="21" as="geometry" />
        </mxCell>
        <mxCell id="IKHvNDyqHvziznPEMNeW-33" value="" style="ellipse;whiteSpace=wrap;html=1;aspect=fixed;fillColor=#f8cecc;strokeColor=#b85450;" parent="1" vertex="1">
          <mxGeometry x="322.6" y="887.9130434782609" width="9.130434782608695" height="9.130434782608695" as="geometry" />
        </mxCell>
        <mxCell id="IKHvNDyqHvziznPEMNeW-34" value="" style="ellipse;whiteSpace=wrap;html=1;aspect=fixed;fillColor=#d5e8d4;strokeColor=#82b366;" parent="1" vertex="1">
          <mxGeometry x="323.03" y="898.8695652173913" width="9.130434782608695" height="9.130434782608695" as="geometry" />
        </mxCell>
        <mxCell id="IKHvNDyqHvziznPEMNeW-35" value="" style="group" parent="1" vertex="1" connectable="0">
          <mxGeometry x="391.6" y="887" width="10" height="21" as="geometry" />
        </mxCell>
        <mxCell id="IKHvNDyqHvziznPEMNeW-36" value="" style="rounded=0;whiteSpace=wrap;html=1;opacity=40;fillColor=#545454;strokeColor=#666666;fontColor=#333333;" parent="IKHvNDyqHvziznPEMNeW-35" vertex="1">
          <mxGeometry width="10" height="21" as="geometry" />
        </mxCell>
        <mxCell id="IKHvNDyqHvziznPEMNeW-37" value="" style="ellipse;whiteSpace=wrap;html=1;aspect=fixed;fillColor=#f8cecc;strokeColor=#b85450;" parent="IKHvNDyqHvziznPEMNeW-35" vertex="1">
          <mxGeometry y="0.9130434782608695" width="9.130434782608695" height="9.130434782608695" as="geometry" />
        </mxCell>
        <mxCell id="IKHvNDyqHvziznPEMNeW-38" value="" style="ellipse;whiteSpace=wrap;html=1;aspect=fixed;fillColor=#d5e8d4;strokeColor=#82b366;" parent="IKHvNDyqHvziznPEMNeW-35" vertex="1">
          <mxGeometry x="0.42999999999999994" y="11.869565217391303" width="9.130434782608695" height="9.130434782608695" as="geometry" />
        </mxCell>
        <mxCell id="IKHvNDyqHvziznPEMNeW-43" value="" style="rounded=0;whiteSpace=wrap;html=1;opacity=40;fillColor=#545454;strokeColor=#666666;fontColor=#333333;" parent="1" vertex="1">
          <mxGeometry x="442.6" y="887" width="10" height="21" as="geometry" />
        </mxCell>
        <mxCell id="IKHvNDyqHvziznPEMNeW-44" value="" style="ellipse;whiteSpace=wrap;html=1;aspect=fixed;fillColor=#f8cecc;strokeColor=#b85450;" parent="1" vertex="1">
          <mxGeometry x="442.6" y="887.9130434782609" width="9.130434782608695" height="9.130434782608695" as="geometry" />
        </mxCell>
        <mxCell id="IKHvNDyqHvziznPEMNeW-45" value="" style="ellipse;whiteSpace=wrap;html=1;aspect=fixed;fillColor=#d5e8d4;strokeColor=#82b366;" parent="1" vertex="1">
          <mxGeometry x="443.0300000000001" y="898.8695652173913" width="9.130434782608695" height="9.130434782608695" as="geometry" />
        </mxCell>
        <mxCell id="IKHvNDyqHvziznPEMNeW-46" value="" style="group" parent="1" vertex="1" connectable="0">
          <mxGeometry x="511.6" y="887" width="10" height="21" as="geometry" />
        </mxCell>
        <mxCell id="IKHvNDyqHvziznPEMNeW-47" value="" style="rounded=0;whiteSpace=wrap;html=1;opacity=40;fillColor=#545454;strokeColor=#666666;fontColor=#333333;" parent="IKHvNDyqHvziznPEMNeW-46" vertex="1">
          <mxGeometry width="10" height="21" as="geometry" />
        </mxCell>
        <mxCell id="IKHvNDyqHvziznPEMNeW-48" value="" style="ellipse;whiteSpace=wrap;html=1;aspect=fixed;fillColor=#f8cecc;strokeColor=#b85450;" parent="IKHvNDyqHvziznPEMNeW-46" vertex="1">
          <mxGeometry y="0.9130434782608695" width="9.130434782608695" height="9.130434782608695" as="geometry" />
        </mxCell>
        <mxCell id="IKHvNDyqHvziznPEMNeW-49" value="" style="ellipse;whiteSpace=wrap;html=1;aspect=fixed;fillColor=#d5e8d4;strokeColor=#82b366;" parent="IKHvNDyqHvziznPEMNeW-46" vertex="1">
          <mxGeometry x="0.42999999999999994" y="11.869565217391303" width="9.130434782608695" height="9.130434782608695" as="geometry" />
        </mxCell>
        <mxCell id="IKHvNDyqHvziznPEMNeW-54" value="" style="rounded=0;whiteSpace=wrap;html=1;opacity=40;fillColor=#545454;strokeColor=#666666;fontColor=#333333;" parent="1" vertex="1">
          <mxGeometry x="424.6" y="940" width="10" height="21" as="geometry" />
        </mxCell>
        <mxCell id="IKHvNDyqHvziznPEMNeW-55" value="" style="ellipse;whiteSpace=wrap;html=1;aspect=fixed;fillColor=#f8cecc;strokeColor=#b85450;" parent="1" vertex="1">
          <mxGeometry x="424.6" y="940.9130434782609" width="9.130434782608695" height="9.130434782608695" as="geometry" />
        </mxCell>
        <mxCell id="IKHvNDyqHvziznPEMNeW-56" value="" style="ellipse;whiteSpace=wrap;html=1;aspect=fixed;fillColor=#d5e8d4;strokeColor=#82b366;" parent="1" vertex="1">
          <mxGeometry x="425.0300000000001" y="951.8695652173913" width="9.130434782608695" height="9.130434782608695" as="geometry" />
        </mxCell>
        <mxCell id="IKHvNDyqHvziznPEMNeW-61" value="" style="group" parent="1" vertex="1" connectable="0">
          <mxGeometry x="441.6" y="1009" width="10" height="21" as="geometry" />
        </mxCell>
        <mxCell id="IKHvNDyqHvziznPEMNeW-62" value="" style="rounded=0;whiteSpace=wrap;html=1;opacity=40;fillColor=#545454;strokeColor=#666666;fontColor=#333333;" parent="IKHvNDyqHvziznPEMNeW-61" vertex="1">
          <mxGeometry width="10" height="21" as="geometry" />
        </mxCell>
        <mxCell id="IKHvNDyqHvziznPEMNeW-63" value="" style="ellipse;whiteSpace=wrap;html=1;aspect=fixed;fillColor=#f8cecc;strokeColor=#b85450;" parent="IKHvNDyqHvziznPEMNeW-61" vertex="1">
          <mxGeometry y="0.9130434782608695" width="9.130434782608695" height="9.130434782608695" as="geometry" />
        </mxCell>
        <mxCell id="IKHvNDyqHvziznPEMNeW-64" value="" style="ellipse;whiteSpace=wrap;html=1;aspect=fixed;fillColor=#d5e8d4;strokeColor=#82b366;" parent="IKHvNDyqHvziznPEMNeW-61" vertex="1">
          <mxGeometry x="0.42999999999999994" y="11.869565217391303" width="9.130434782608695" height="9.130434782608695" as="geometry" />
        </mxCell>
        <mxCell id="IKHvNDyqHvziznPEMNeW-65" value="" style="rounded=0;whiteSpace=wrap;html=1;opacity=40;fillColor=#545454;strokeColor=#666666;fontColor=#333333;" parent="1" vertex="1">
          <mxGeometry x="443.0300000000001" y="1049" width="10" height="21" as="geometry" />
        </mxCell>
        <mxCell id="IKHvNDyqHvziznPEMNeW-66" value="" style="ellipse;whiteSpace=wrap;html=1;aspect=fixed;fillColor=#f8cecc;strokeColor=#b85450;" parent="1" vertex="1">
          <mxGeometry x="443.0300000000001" y="1049.913043478261" width="9.130434782608695" height="9.130434782608695" as="geometry" />
        </mxCell>
        <mxCell id="IKHvNDyqHvziznPEMNeW-67" value="" style="ellipse;whiteSpace=wrap;html=1;aspect=fixed;fillColor=#d5e8d4;strokeColor=#82b366;" parent="1" vertex="1">
          <mxGeometry x="443.46000000000004" y="1060.8695652173913" width="9.130434782608695" height="9.130434782608695" as="geometry" />
        </mxCell>
        <mxCell id="IKHvNDyqHvziznPEMNeW-72" value="" style="group" parent="1" vertex="1" connectable="0">
          <mxGeometry x="441.6" y="1129" width="10" height="21" as="geometry" />
        </mxCell>
        <mxCell id="IKHvNDyqHvziznPEMNeW-73" value="" style="rounded=0;whiteSpace=wrap;html=1;opacity=40;fillColor=#545454;strokeColor=#666666;fontColor=#333333;" parent="IKHvNDyqHvziznPEMNeW-72" vertex="1">
          <mxGeometry width="10" height="21" as="geometry" />
        </mxCell>
        <mxCell id="IKHvNDyqHvziznPEMNeW-74" value="" style="ellipse;whiteSpace=wrap;html=1;aspect=fixed;fillColor=#f8cecc;strokeColor=#b85450;" parent="IKHvNDyqHvziznPEMNeW-72" vertex="1">
          <mxGeometry y="0.9130434782608695" width="9.130434782608695" height="9.130434782608695" as="geometry" />
        </mxCell>
        <mxCell id="IKHvNDyqHvziznPEMNeW-75" value="" style="ellipse;whiteSpace=wrap;html=1;aspect=fixed;fillColor=#d5e8d4;strokeColor=#82b366;" parent="IKHvNDyqHvziznPEMNeW-72" vertex="1">
          <mxGeometry x="0.42999999999999994" y="11.869565217391303" width="9.130434782608695" height="9.130434782608695" as="geometry" />
        </mxCell>
        <mxCell id="IKHvNDyqHvziznPEMNeW-76" value="" style="shape=link;html=1;rounded=0;exitX=1.02;exitY=0.281;exitDx=0;exitDy=0;exitPerimeter=0;" parent="1" source="hszMQZdKSLgJRzkdsVp9-15" edge="1">
          <mxGeometry width="100" relative="1" as="geometry">
            <mxPoint x="561.6" y="920" as="sourcePoint" />
            <mxPoint x="521.6" y="920" as="targetPoint" />
            <Array as="points">
              <mxPoint x="551.6" y="910" />
              <mxPoint x="531.6" y="910" />
            </Array>
          </mxGeometry>
        </mxCell>
        <mxCell id="IKHvNDyqHvziznPEMNeW-77" value="" style="shape=link;html=1;rounded=0;entryX=0;entryY=0.5;entryDx=0;entryDy=0;exitX=1;exitY=0.5;exitDx=0;exitDy=0;" parent="1" edge="1">
          <mxGeometry width="100" relative="1" as="geometry">
            <mxPoint x="561.6" y="919" as="sourcePoint" />
            <mxPoint x="521.6" y="919" as="targetPoint" />
          </mxGeometry>
        </mxCell>
        <mxCell id="IKHvNDyqHvziznPEMNeW-78" value="" style="shape=link;html=1;rounded=0;entryX=0;entryY=0.5;entryDx=0;entryDy=0;exitX=1;exitY=0.5;exitDx=0;exitDy=0;" parent="1" edge="1">
          <mxGeometry width="100" relative="1" as="geometry">
            <mxPoint x="441.6" y="918.91" as="sourcePoint" />
            <mxPoint x="401.6" y="918.91" as="targetPoint" />
          </mxGeometry>
        </mxCell>
        <mxCell id="IKHvNDyqHvziznPEMNeW-79" value="" style="shape=link;html=1;rounded=0;exitX=0.5;exitY=1;exitDx=0;exitDy=0;entryX=0;entryY=0.5;entryDx=0;entryDy=0;" parent="1" source="hszMQZdKSLgJRzkdsVp9-14" target="hszMQZdKSLgJRzkdsVp9-14" edge="1">
          <mxGeometry width="100" relative="1" as="geometry">
            <mxPoint x="407.6" y="950.87" as="sourcePoint" />
            <mxPoint x="367.6" y="950.87" as="targetPoint" />
            <Array as="points">
              <mxPoint x="411.6" y="929" />
            </Array>
          </mxGeometry>
        </mxCell>
        <mxCell id="IKHvNDyqHvziznPEMNeW-80" value="" style="shape=link;html=1;rounded=0;exitX=0.5;exitY=1;exitDx=0;exitDy=0;entryX=1;entryY=0.5;entryDx=0;entryDy=0;" parent="1" source="hszMQZdKSLgJRzkdsVp9-14" target="hszMQZdKSLgJRzkdsVp9-14" edge="1">
          <mxGeometry width="100" relative="1" as="geometry">
            <mxPoint x="502.6" y="939" as="sourcePoint" />
            <mxPoint x="462.6" y="939" as="targetPoint" />
            <Array as="points">
              <mxPoint x="431.6" y="929" />
            </Array>
          </mxGeometry>
        </mxCell>
        <mxCell id="IKHvNDyqHvziznPEMNeW-83" value="" style="shape=link;html=1;rounded=0;exitX=1;exitY=0.5;exitDx=0;exitDy=0;entryX=0;entryY=0.5;entryDx=0;entryDy=0;endArrow=none;" parent="1" target="IKHvNDyqHvziznPEMNeW-82" edge="1">
          <mxGeometry width="100" relative="1" as="geometry">
            <mxPoint x="321.6" y="918.77" as="sourcePoint" />
            <mxPoint x="401.6" y="918.77" as="targetPoint" />
          </mxGeometry>
        </mxCell>
        <mxCell id="IKHvNDyqHvziznPEMNeW-82" value="T1" style="verticalLabelPosition=middle;verticalAlign=middle;html=1;shape=mxgraph.basic.plaque;dx=6;whiteSpace=wrap;fillColor=#ffe6cc;strokeColor=#d79b00;labelPosition=center;align=center;fontSize=9;" parent="1" vertex="1">
          <mxGeometry x="335.6" y="914" width="40" height="10" as="geometry" />
        </mxCell>
        <mxCell id="IKHvNDyqHvziznPEMNeW-87" value="" style="shape=link;html=1;rounded=0;exitX=1;exitY=0.5;exitDx=0;exitDy=0;endArrow=none;" parent="1" edge="1">
          <mxGeometry width="100" relative="1" as="geometry">
            <mxPoint x="321.6" y="919" as="sourcePoint" />
            <mxPoint x="281.6" y="919" as="targetPoint" />
          </mxGeometry>
        </mxCell>
        <mxCell id="IKHvNDyqHvziznPEMNeW-81" value="T2" style="verticalLabelPosition=middle;verticalAlign=middle;html=1;shape=mxgraph.basic.plaque;dx=6;whiteSpace=wrap;fillColor=#f8cecc;strokeColor=#b85450;direction=west;fontSize=9;labelPosition=center;align=center;" parent="1" vertex="1">
          <mxGeometry x="281.6" y="904" width="40" height="10" as="geometry" />
        </mxCell>
        <mxCell id="IKHvNDyqHvziznPEMNeW-97" value="Nbr Trains Max&lt;br&gt;= (2*G)-1" style="rounded=0;whiteSpace=wrap;html=1;" parent="1" vertex="1">
          <mxGeometry x="41.599999999999994" y="1030" width="90" height="40" as="geometry" />
        </mxCell>
        <mxCell id="IKHvNDyqHvziznPEMNeW-100" value="M" style="whiteSpace=wrap;html=1;aspect=fixed;fontSize=9;fillColor=#fff2cc;strokeColor=#d6b656;" parent="1" vertex="1">
          <mxGeometry x="390.6" y="921.48" width="11" height="11" as="geometry" />
        </mxCell>
        <mxCell id="IKHvNDyqHvziznPEMNeW-101" value="L" style="whiteSpace=wrap;html=1;aspect=fixed;fontSize=9;fillColor=#fff2cc;strokeColor=#d6b656;" parent="1" vertex="1">
          <mxGeometry x="390.6" y="932.48" width="11" height="11" as="geometry" />
        </mxCell>
        <mxCell id="IKHvNDyqHvziznPEMNeW-102" value="M" style="whiteSpace=wrap;html=1;aspect=fixed;fontSize=9;fillColor=#fff2cc;strokeColor=#d6b656;" parent="1" vertex="1">
          <mxGeometry x="407.6" y="939.04" width="11" height="11" as="geometry" />
        </mxCell>
        <mxCell id="IKHvNDyqHvziznPEMNeW-103" value="L" style="whiteSpace=wrap;html=1;aspect=fixed;fontSize=9;fillColor=#fff2cc;strokeColor=#d6b656;" parent="1" vertex="1">
          <mxGeometry x="407.6" y="950.04" width="11" height="11" as="geometry" />
        </mxCell>
        <mxCell id="IKHvNDyqHvziznPEMNeW-104" value="M" style="whiteSpace=wrap;html=1;aspect=fixed;fontSize=9;fillColor=#fff2cc;strokeColor=#d6b656;" parent="1" vertex="1">
          <mxGeometry x="442.46000000000004" y="921.48" width="11" height="11" as="geometry" />
        </mxCell>
        <mxCell id="IKHvNDyqHvziznPEMNeW-105" value="L" style="whiteSpace=wrap;html=1;aspect=fixed;fontSize=9;fillColor=#fff2cc;strokeColor=#d6b656;" parent="1" vertex="1">
          <mxGeometry x="442.46000000000004" y="932.48" width="11" height="11" as="geometry" />
        </mxCell>
        <mxCell id="IKHvNDyqHvziznPEMNeW-108" value="M" style="whiteSpace=wrap;html=1;aspect=fixed;fontSize=9;fillColor=#fff2cc;strokeColor=#d6b656;" parent="1" vertex="1">
          <mxGeometry x="510.6" y="921.48" width="11" height="11" as="geometry" />
        </mxCell>
        <mxCell id="IKHvNDyqHvziznPEMNeW-109" value="L" style="whiteSpace=wrap;html=1;aspect=fixed;fontSize=9;fillColor=#fff2cc;strokeColor=#d6b656;" parent="1" vertex="1">
          <mxGeometry x="510.6" y="932.48" width="11" height="11" as="geometry" />
        </mxCell>
        <mxCell id="IKHvNDyqHvziznPEMNeW-110" value="M" style="whiteSpace=wrap;html=1;aspect=fixed;fontSize=9;fillColor=#fff2cc;strokeColor=#d6b656;" parent="1" vertex="1">
          <mxGeometry x="407.6" y="997" width="11" height="11" as="geometry" />
        </mxCell>
        <mxCell id="IKHvNDyqHvziznPEMNeW-111" value="L" style="whiteSpace=wrap;html=1;aspect=fixed;fontSize=9;fillColor=#fff2cc;strokeColor=#d6b656;" parent="1" vertex="1">
          <mxGeometry x="407.6" y="1008" width="11" height="11" as="geometry" />
        </mxCell>
        <mxCell id="IKHvNDyqHvziznPEMNeW-112" value="M" style="whiteSpace=wrap;html=1;aspect=fixed;fontSize=9;fillColor=#fff2cc;strokeColor=#d6b656;" parent="1" vertex="1">
          <mxGeometry x="407.6" y="1059" width="11" height="11" as="geometry" />
        </mxCell>
        <mxCell id="IKHvNDyqHvziznPEMNeW-113" value="L" style="whiteSpace=wrap;html=1;aspect=fixed;fontSize=9;fillColor=#fff2cc;strokeColor=#d6b656;" parent="1" vertex="1">
          <mxGeometry x="407.6" y="1070" width="11" height="11" as="geometry" />
        </mxCell>
        <mxCell id="IKHvNDyqHvziznPEMNeW-114" value="M" style="whiteSpace=wrap;html=1;aspect=fixed;fontSize=9;fillColor=#fff2cc;strokeColor=#d6b656;" parent="1" vertex="1">
          <mxGeometry x="407.6" y="1117" width="11" height="11" as="geometry" />
        </mxCell>
        <mxCell id="IKHvNDyqHvziznPEMNeW-115" value="L" style="whiteSpace=wrap;html=1;aspect=fixed;fontSize=9;fillColor=#fff2cc;strokeColor=#d6b656;" parent="1" vertex="1">
          <mxGeometry x="407.6" y="1128" width="11" height="11" as="geometry" />
        </mxCell>
        <mxCell id="IKHvNDyqHvziznPEMNeW-116" value="&lt;pre style=&quot;line-height: 100%; font-size: 11px;&quot;&gt;&lt;font face=&quot;Helvetica&quot;&gt;&lt;span style=&quot;background-color: initial;&quot;&gt;&lt;font style=&quot;font-size: 11px;&quot;&gt;- 4 Gares principales (GP)&lt;br&gt;&lt;/font&gt;&lt;/span&gt;&lt;span style=&quot;background-color: initial;&quot;&gt;&lt;font style=&quot;font-size: 11px;&quot;&gt;- 3 Gares secondaires (GS)&lt;/font&gt;&lt;/span&gt;&lt;span style=&quot;background-color: initial;&quot;&gt;&lt;font style=&quot;font-size: 11px;&quot;&gt;&lt;br&gt;&lt;/font&gt;&lt;/span&gt;&lt;span style=&quot;background-color: initial;&quot;&gt;&lt;font style=&quot;font-size: 11px;&quot;&gt;- 12 Switchs&lt;br&gt;&lt;/font&gt;&lt;/span&gt;&lt;span style=&quot;background-color: initial;&quot;&gt;&lt;font style=&quot;font-size: 11px;&quot;&gt;- 12 Feux&lt;/font&gt;&lt;/span&gt;&lt;/font&gt;&lt;/pre&gt;" style="rounded=0;whiteSpace=wrap;html=1;align=left;" parent="1" vertex="1">
          <mxGeometry x="41.599999999999994" y="971.5" width="140" height="56.5" as="geometry" />
        </mxCell>
        <mxCell id="IKHvNDyqHvziznPEMNeW-88" value="M" style="whiteSpace=wrap;html=1;aspect=fixed;fontSize=9;fillColor=#fff2cc;strokeColor=#d6b656;fontStyle=0;strokeWidth=1;rounded=1;" parent="1" vertex="1">
          <mxGeometry x="81.6" y="920.9063414634146" width="8.85365853658537" height="8.85365853658537" as="geometry" />
        </mxCell>
        <mxCell id="IKHvNDyqHvziznPEMNeW-117" value="&lt;p style=&quot;line-height: 60%;&quot;&gt;&lt;br&gt;&lt;/p&gt;" style="rounded=0;whiteSpace=wrap;html=1;textOpacity=50;fillColor=#f8cecc;strokeColor=#b85450;labelPosition=center;verticalLabelPosition=bottom;align=center;verticalAlign=top;fontSize=10;opacity=30;" parent="1" vertex="1">
          <mxGeometry x="81.6" y="920.52" width="10" height="18.480000000000008" as="geometry" />
        </mxCell>
        <mxCell id="IKHvNDyqHvziznPEMNeW-89" value="S" style="whiteSpace=wrap;html=1;aspect=fixed;fontSize=9;fillColor=#fff2cc;strokeColor=#d6b656;fontStyle=0;rounded=1;" parent="1" vertex="1">
          <mxGeometry x="81.6" y="929.76" width="8.85365853658537" height="8.85365853658537" as="geometry" />
        </mxCell>
        <mxCell id="IKHvNDyqHvziznPEMNeW-120" value="M" style="whiteSpace=wrap;html=1;aspect=fixed;fontSize=9;fillColor=#fff2cc;strokeColor=#d6b656;fontStyle=0;strokeWidth=1;rounded=1;" parent="1" vertex="1">
          <mxGeometry x="151.6" y="921.3863414634146" width="8.85365853658537" height="8.85365853658537" as="geometry" />
        </mxCell>
        <mxCell id="IKHvNDyqHvziznPEMNeW-122" value="BA_S" style="rounded=0;whiteSpace=wrap;html=1;textOpacity=50;fillColor=#f8cecc;strokeColor=#b85450;labelPosition=center;verticalLabelPosition=bottom;align=center;verticalAlign=top;fontSize=10;opacity=30;" parent="1" vertex="1">
          <mxGeometry x="151.6" y="921" width="10" height="18.480000000000008" as="geometry" />
        </mxCell>
        <mxCell id="IKHvNDyqHvziznPEMNeW-121" value="S" style="whiteSpace=wrap;html=1;aspect=fixed;fontSize=9;fillColor=#fff2cc;strokeColor=#d6b656;fontStyle=0;rounded=1;" parent="1" vertex="1">
          <mxGeometry x="151.6" y="930.24" width="8.85365853658537" height="8.85365853658537" as="geometry" />
        </mxCell>
        <mxCell id="IKHvNDyqHvziznPEMNeW-136" value="" style="group" parent="1" vertex="1" connectable="0">
          <mxGeometry x="201.6" y="921" width="10" height="18.480000000000004" as="geometry" />
        </mxCell>
        <mxCell id="IKHvNDyqHvziznPEMNeW-124" value="M" style="whiteSpace=wrap;html=1;aspect=fixed;fontSize=9;fillColor=#fff2cc;strokeColor=#d6b656;fontStyle=0;strokeWidth=1;rounded=1;" parent="IKHvNDyqHvziznPEMNeW-136" vertex="1">
          <mxGeometry y="0.38634146341463804" width="8.85365853658537" height="8.85365853658537" as="geometry" />
        </mxCell>
        <mxCell id="IKHvNDyqHvziznPEMNeW-126" value="BC_S" style="rounded=0;whiteSpace=wrap;html=1;textOpacity=50;fillColor=#f8cecc;strokeColor=#b85450;labelPosition=center;verticalLabelPosition=bottom;align=center;verticalAlign=top;fontSize=10;opacity=30;" parent="IKHvNDyqHvziznPEMNeW-136" vertex="1">
          <mxGeometry width="10" height="18.480000000000008" as="geometry" />
        </mxCell>
        <mxCell id="IKHvNDyqHvziznPEMNeW-125" value="S" style="whiteSpace=wrap;html=1;aspect=fixed;fontSize=9;fillColor=#fff2cc;strokeColor=#d6b656;fontStyle=0;rounded=1;" parent="IKHvNDyqHvziznPEMNeW-136" vertex="1">
          <mxGeometry y="9.240000000000009" width="8.85365853658537" height="8.85365853658537" as="geometry" />
        </mxCell>
        <mxCell id="IKHvNDyqHvziznPEMNeW-137" value="" style="group" parent="1" vertex="1" connectable="0">
          <mxGeometry x="270.6" y="921.52" width="10" height="18.480000000000004" as="geometry" />
        </mxCell>
        <mxCell id="IKHvNDyqHvziznPEMNeW-138" value="M" style="whiteSpace=wrap;html=1;aspect=fixed;fontSize=9;fillColor=#fff2cc;strokeColor=#d6b656;fontStyle=0;strokeWidth=1;rounded=1;" parent="IKHvNDyqHvziznPEMNeW-137" vertex="1">
          <mxGeometry y="0.38634146341463804" width="8.85365853658537" height="8.85365853658537" as="geometry" />
        </mxCell>
        <mxCell id="IKHvNDyqHvziznPEMNeW-139" value="CB_S" style="rounded=0;whiteSpace=wrap;html=1;textOpacity=50;fillColor=#f8cecc;strokeColor=#b85450;labelPosition=center;verticalLabelPosition=bottom;align=center;verticalAlign=top;fontSize=10;opacity=30;" parent="IKHvNDyqHvziznPEMNeW-137" vertex="1">
          <mxGeometry width="10" height="18.480000000000008" as="geometry" />
        </mxCell>
        <mxCell id="IKHvNDyqHvziznPEMNeW-140" value="S" style="whiteSpace=wrap;html=1;aspect=fixed;fontSize=9;fillColor=#fff2cc;strokeColor=#d6b656;fontStyle=0;rounded=1;" parent="IKHvNDyqHvziznPEMNeW-137" vertex="1">
          <mxGeometry y="9.240000000000009" width="8.85365853658537" height="8.85365853658537" as="geometry" />
        </mxCell>
        <mxCell id="IKHvNDyqHvziznPEMNeW-141" value="" style="group" parent="1" vertex="1" connectable="0">
          <mxGeometry x="321.6" y="921" width="10" height="18.480000000000004" as="geometry" />
        </mxCell>
        <mxCell id="IKHvNDyqHvziznPEMNeW-142" value="M" style="whiteSpace=wrap;html=1;aspect=fixed;fontSize=9;fillColor=#fff2cc;strokeColor=#d6b656;fontStyle=0;strokeWidth=1;rounded=1;" parent="IKHvNDyqHvziznPEMNeW-141" vertex="1">
          <mxGeometry y="0.38634146341463804" width="8.85365853658537" height="8.85365853658537" as="geometry" />
        </mxCell>
        <mxCell id="IKHvNDyqHvziznPEMNeW-143" value="CD_S" style="rounded=0;whiteSpace=wrap;html=1;textOpacity=50;fillColor=#f8cecc;strokeColor=#b85450;labelPosition=center;verticalLabelPosition=bottom;align=center;verticalAlign=top;fontSize=10;opacity=30;" parent="IKHvNDyqHvziznPEMNeW-141" vertex="1">
          <mxGeometry width="10" height="18.480000000000008" as="geometry" />
        </mxCell>
        <mxCell id="IKHvNDyqHvziznPEMNeW-144" value="S" style="whiteSpace=wrap;html=1;aspect=fixed;fontSize=9;fillColor=#fff2cc;strokeColor=#d6b656;fontStyle=0;rounded=1;" parent="IKHvNDyqHvziznPEMNeW-141" vertex="1">
          <mxGeometry y="9.240000000000009" width="8.85365853658537" height="8.85365853658537" as="geometry" />
        </mxCell>
        <mxCell id="qlBSuscofpIT4ipNYnHG-1" value="&lt;div style=&quot;line-height: 140%;&quot;&gt;&lt;span style=&quot;background-color: initial;&quot;&gt;&lt;font color=&quot;#2414ff&quot; style=&quot;font-size: 12px;&quot;&gt;MaS1&lt;/font&gt;&lt;/span&gt;&lt;/div&gt;" style="whiteSpace=wrap;html=1;aspect=fixed;fillColor=#dae8fc;strokeColor=#6c8ebf;textOpacity=50;horizontal=1;verticalAlign=bottom;labelPosition=center;verticalLabelPosition=top;align=left;fontSize=9;" parent="1" vertex="1">
          <mxGeometry x="20" y="40.44" width="71.2" height="71.2" as="geometry" />
        </mxCell>
        <mxCell id="qlBSuscofpIT4ipNYnHG-4" value="&lt;pre style=&quot;line-height: 10%;&quot;&gt;&lt;br&gt;&lt;/pre&gt;" style="shape=link;html=1;rounded=0;entryX=0.016;entryY=0.307;entryDx=0;entryDy=0;entryPerimeter=0;" parent="1" target="qlBSuscofpIT4ipNYnHG-1" edge="1">
          <mxGeometry x="-0.0035" width="100" relative="1" as="geometry">
            <mxPoint x="90" y="73" as="sourcePoint" />
            <mxPoint x="42" y="73" as="targetPoint" />
            <Array as="points">
              <mxPoint x="72" y="63" />
              <mxPoint x="52" y="63" />
            </Array>
            <mxPoint as="offset" />
          </mxGeometry>
        </mxCell>
        <mxCell id="qlBSuscofpIT4ipNYnHG-5" value="" style="shape=link;html=1;rounded=0;entryX=0;entryY=0.5;entryDx=0;entryDy=0;exitX=1;exitY=0.5;exitDx=0;exitDy=0;" parent="1" source="qlBSuscofpIT4ipNYnHG-1" target="qlBSuscofpIT4ipNYnHG-1" edge="1">
          <mxGeometry width="100" relative="1" as="geometry">
            <mxPoint x="66.86" y="22" as="sourcePoint" />
            <mxPoint x="66.86" y="62" as="targetPoint" />
          </mxGeometry>
        </mxCell>
        <mxCell id="qlBSuscofpIT4ipNYnHG-6" value="" style="shape=link;html=1;rounded=0;exitX=1;exitY=0.5;exitDx=0;exitDy=0;" parent="1" source="qlBSuscofpIT4ipNYnHG-2" edge="1">
          <mxGeometry width="100" relative="1" as="geometry">
            <mxPoint x="219.6" y="62.04000000000007" as="sourcePoint" />
            <mxPoint x="162" y="72" as="targetPoint" />
            <Array as="points">
              <mxPoint x="210" y="60" />
              <mxPoint x="190" y="60" />
              <mxPoint x="170" y="60" />
            </Array>
          </mxGeometry>
        </mxCell>
        <mxCell id="qlBSuscofpIT4ipNYnHG-8" value="" style="shape=link;html=1;rounded=0;entryX=-0.004;entryY=0.482;entryDx=0;entryDy=0;entryPerimeter=0;exitX=1;exitY=0.5;exitDx=0;exitDy=0;" parent="1" source="qlBSuscofpIT4ipNYnHG-2" target="qlBSuscofpIT4ipNYnHG-2" edge="1">
          <mxGeometry width="100" relative="1" as="geometry">
            <mxPoint x="230" y="75" as="sourcePoint" />
            <mxPoint x="171.16" y="73.77000000000001" as="targetPoint" />
          </mxGeometry>
        </mxCell>
        <mxCell id="qlBSuscofpIT4ipNYnHG-9" value="" style="shape=link;html=1;rounded=0;exitX=1;exitY=0.5;exitDx=0;exitDy=0;entryX=0;entryY=0.5;entryDx=0;entryDy=0;" parent="1" source="qlBSuscofpIT4ipNYnHG-2" target="qlBSuscofpIT4ipNYnHG-3" edge="1">
          <mxGeometry width="100" relative="1" as="geometry">
            <mxPoint x="232" y="92" as="sourcePoint" />
            <mxPoint x="232" y="172" as="targetPoint" />
          </mxGeometry>
        </mxCell>
        <mxCell id="qlBSuscofpIT4ipNYnHG-10" value="" style="shape=link;html=1;rounded=0;exitX=1;exitY=0.5;exitDx=0;exitDy=0;entryX=0;entryY=0.5;entryDx=0;entryDy=0;" parent="1" source="qlBSuscofpIT4ipNYnHG-52" edge="1">
          <mxGeometry width="100" relative="1" as="geometry">
            <mxPoint x="82" y="71.76999999999998" as="sourcePoint" />
            <mxPoint x="162" y="71.76999999999998" as="targetPoint" />
          </mxGeometry>
        </mxCell>
        <mxCell id="qlBSuscofpIT4ipNYnHG-11" value="TL_SL" style="group;labelPosition=center;verticalLabelPosition=top;align=center;verticalAlign=bottom;fontSize=9;textOpacity=50;fontColor=#0DFF15;fontStyle=1" parent="1" vertex="1" connectable="0">
          <mxGeometry x="80.45" y="41.91" width="10" height="21" as="geometry" />
        </mxCell>
        <mxCell id="qlBSuscofpIT4ipNYnHG-12" value="" style="rounded=0;whiteSpace=wrap;html=1;opacity=40;fillColor=#545454;strokeColor=#666666;fontColor=#333333;" parent="qlBSuscofpIT4ipNYnHG-11" vertex="1">
          <mxGeometry width="10" height="21" as="geometry" />
        </mxCell>
        <mxCell id="qlBSuscofpIT4ipNYnHG-13" value="" style="ellipse;whiteSpace=wrap;html=1;aspect=fixed;fillColor=#f8cecc;strokeColor=#b85450;" parent="qlBSuscofpIT4ipNYnHG-11" vertex="1">
          <mxGeometry y="0.9130434782608695" width="9.130434782608695" height="9.130434782608695" as="geometry" />
        </mxCell>
        <mxCell id="qlBSuscofpIT4ipNYnHG-14" value="" style="ellipse;whiteSpace=wrap;html=1;aspect=fixed;fillColor=#d5e8d4;strokeColor=#82b366;" parent="qlBSuscofpIT4ipNYnHG-11" vertex="1">
          <mxGeometry x="0.42999999999999994" y="11.869565217391303" width="9.130434782608695" height="9.130434782608695" as="geometry" />
        </mxCell>
        <mxCell id="qlBSuscofpIT4ipNYnHG-15" value="SeS1TL&#xa;_SL1" style="group;fontSize=8;labelPosition=center;verticalLabelPosition=top;align=center;verticalAlign=bottom;textOpacity=50;fontColor=#0DFF15;fontStyle=1" parent="1" vertex="1" connectable="0">
          <mxGeometry x="162" y="41" width="10" height="21" as="geometry" />
        </mxCell>
        <mxCell id="qlBSuscofpIT4ipNYnHG-16" value="" style="rounded=0;whiteSpace=wrap;html=1;opacity=40;fillColor=#545454;strokeColor=#666666;fontColor=#333333;" parent="qlBSuscofpIT4ipNYnHG-15" vertex="1">
          <mxGeometry width="10" height="21" as="geometry" />
        </mxCell>
        <mxCell id="qlBSuscofpIT4ipNYnHG-17" value="" style="ellipse;whiteSpace=wrap;html=1;aspect=fixed;fillColor=#f8cecc;strokeColor=#b85450;" parent="qlBSuscofpIT4ipNYnHG-15" vertex="1">
          <mxGeometry y="0.9130434782608695" width="9.130434782608695" height="9.130434782608695" as="geometry" />
        </mxCell>
        <mxCell id="qlBSuscofpIT4ipNYnHG-18" value="" style="ellipse;whiteSpace=wrap;html=1;aspect=fixed;fillColor=#d5e8d4;strokeColor=#82b366;" parent="qlBSuscofpIT4ipNYnHG-15" vertex="1">
          <mxGeometry x="0.42999999999999994" y="11.869565217391303" width="9.130434782608695" height="9.130434782608695" as="geometry" />
        </mxCell>
        <mxCell id="qlBSuscofpIT4ipNYnHG-22" value="" style="group" parent="1" vertex="1" connectable="0">
          <mxGeometry x="271" y="41" width="10" height="21" as="geometry" />
        </mxCell>
        <mxCell id="qlBSuscofpIT4ipNYnHG-23" value="" style="rounded=0;whiteSpace=wrap;html=1;opacity=40;fillColor=#545454;strokeColor=#666666;fontColor=#333333;" parent="qlBSuscofpIT4ipNYnHG-22" vertex="1">
          <mxGeometry width="10" height="21" as="geometry" />
        </mxCell>
        <mxCell id="qlBSuscofpIT4ipNYnHG-24" value="" style="ellipse;whiteSpace=wrap;html=1;aspect=fixed;fillColor=#f8cecc;strokeColor=#b85450;" parent="qlBSuscofpIT4ipNYnHG-22" vertex="1">
          <mxGeometry y="0.9130434782608695" width="9.130434782608695" height="9.130434782608695" as="geometry" />
        </mxCell>
        <mxCell id="qlBSuscofpIT4ipNYnHG-25" value="" style="ellipse;whiteSpace=wrap;html=1;aspect=fixed;fillColor=#d5e8d4;strokeColor=#82b366;" parent="qlBSuscofpIT4ipNYnHG-22" vertex="1">
          <mxGeometry x="0.42999999999999994" y="11.869565217391303" width="9.130434782608695" height="9.130434782608695" as="geometry" />
        </mxCell>
        <mxCell id="qlBSuscofpIT4ipNYnHG-26" value="" style="rounded=0;whiteSpace=wrap;html=1;opacity=40;fillColor=#545454;strokeColor=#666666;fontColor=#333333;" parent="1" vertex="1">
          <mxGeometry x="323" y="40" width="10" height="21" as="geometry" />
        </mxCell>
        <mxCell id="qlBSuscofpIT4ipNYnHG-27" value="" style="ellipse;whiteSpace=wrap;html=1;aspect=fixed;fillColor=#f8cecc;strokeColor=#b85450;" parent="1" vertex="1">
          <mxGeometry x="323" y="40.913043478260875" width="9.130434782608695" height="9.130434782608695" as="geometry" />
        </mxCell>
        <mxCell id="qlBSuscofpIT4ipNYnHG-28" value="" style="ellipse;whiteSpace=wrap;html=1;aspect=fixed;fillColor=#d5e8d4;strokeColor=#82b366;" parent="1" vertex="1">
          <mxGeometry x="323.43" y="51.86956521739131" width="9.130434782608695" height="9.130434782608695" as="geometry" />
        </mxCell>
        <mxCell id="qlBSuscofpIT4ipNYnHG-29" value="" style="shape=link;html=1;rounded=0;exitX=1;exitY=0.5;exitDx=0;exitDy=0;entryX=0;entryY=0.5;entryDx=0;entryDy=0;endArrow=none;" parent="1" edge="1">
          <mxGeometry width="100" relative="1" as="geometry">
            <mxPoint x="322" y="71.76999999999998" as="sourcePoint" />
            <mxPoint x="336" y="72" as="targetPoint" />
          </mxGeometry>
        </mxCell>
        <mxCell id="qlBSuscofpIT4ipNYnHG-30" value="" style="shape=link;html=1;rounded=0;exitX=1;exitY=0.5;exitDx=0;exitDy=0;endArrow=none;" parent="1" edge="1">
          <mxGeometry width="100" relative="1" as="geometry">
            <mxPoint x="322" y="72" as="sourcePoint" />
            <mxPoint x="282" y="72" as="targetPoint" />
          </mxGeometry>
        </mxCell>
        <mxCell id="qlBSuscofpIT4ipNYnHG-31" value="T2" style="verticalLabelPosition=middle;verticalAlign=middle;html=1;shape=mxgraph.basic.plaque;dx=6;whiteSpace=wrap;fillColor=#f8cecc;strokeColor=#b85450;direction=west;fontSize=9;labelPosition=center;align=center;" parent="1" vertex="1">
          <mxGeometry x="282" y="57" width="40" height="10" as="geometry" />
        </mxCell>
        <mxCell id="qlBSuscofpIT4ipNYnHG-32" value="M" style="whiteSpace=wrap;html=1;aspect=fixed;fontSize=9;fillColor=#fff2cc;strokeColor=#d6b656;fontStyle=0;strokeWidth=1;rounded=1;" parent="1" vertex="1">
          <mxGeometry x="91.6" y="74.9063414634146" width="8.85365853658537" height="8.85365853658537" as="geometry" />
        </mxCell>
        <mxCell id="qlBSuscofpIT4ipNYnHG-33" value="&lt;p style=&quot;line-height: 60%;&quot;&gt;&lt;br&gt;&lt;/p&gt;" style="rounded=0;whiteSpace=wrap;html=1;textOpacity=50;fillColor=#f8cecc;strokeColor=#b85450;labelPosition=center;verticalLabelPosition=bottom;align=center;verticalAlign=top;fontSize=10;opacity=30;" parent="1" vertex="1">
          <mxGeometry x="90.45" y="74.51999999999998" width="10" height="18.480000000000008" as="geometry" />
        </mxCell>
        <mxCell id="qlBSuscofpIT4ipNYnHG-34" value="S" style="whiteSpace=wrap;html=1;aspect=fixed;fontSize=9;fillColor=#fff2cc;strokeColor=#d6b656;fontStyle=0;rounded=1;" parent="1" vertex="1">
          <mxGeometry x="91.6" y="83.75999999999999" width="8.85365853658537" height="8.85365853658537" as="geometry" />
        </mxCell>
        <mxCell id="qlBSuscofpIT4ipNYnHG-42" value="" style="group" parent="1" vertex="1" connectable="0">
          <mxGeometry x="271" y="74.51999999999998" width="10" height="18.480000000000004" as="geometry" />
        </mxCell>
        <mxCell id="qlBSuscofpIT4ipNYnHG-43" value="M" style="whiteSpace=wrap;html=1;aspect=fixed;fontSize=9;fillColor=#fff2cc;strokeColor=#d6b656;fontStyle=0;strokeWidth=1;rounded=1;" parent="qlBSuscofpIT4ipNYnHG-42" vertex="1">
          <mxGeometry y="0.38634146341463804" width="8.85365853658537" height="8.85365853658537" as="geometry" />
        </mxCell>
        <mxCell id="qlBSuscofpIT4ipNYnHG-44" value="CB_S" style="rounded=0;whiteSpace=wrap;html=1;textOpacity=50;fillColor=#f8cecc;strokeColor=#b85450;labelPosition=center;verticalLabelPosition=bottom;align=center;verticalAlign=top;fontSize=10;opacity=30;" parent="qlBSuscofpIT4ipNYnHG-42" vertex="1">
          <mxGeometry width="10" height="18.480000000000008" as="geometry" />
        </mxCell>
        <mxCell id="qlBSuscofpIT4ipNYnHG-45" value="S" style="whiteSpace=wrap;html=1;aspect=fixed;fontSize=9;fillColor=#fff2cc;strokeColor=#d6b656;fontStyle=0;rounded=1;" parent="qlBSuscofpIT4ipNYnHG-42" vertex="1">
          <mxGeometry y="9.240000000000009" width="8.85365853658537" height="8.85365853658537" as="geometry" />
        </mxCell>
        <mxCell id="qlBSuscofpIT4ipNYnHG-46" value="" style="group" parent="1" vertex="1" connectable="0">
          <mxGeometry x="322" y="74" width="30.560000000000002" height="38.04" as="geometry" />
        </mxCell>
        <mxCell id="qlBSuscofpIT4ipNYnHG-47" value="M" style="whiteSpace=wrap;html=1;aspect=fixed;fontSize=9;fillColor=#fff2cc;strokeColor=#d6b656;fontStyle=0;strokeWidth=1;rounded=1;" parent="qlBSuscofpIT4ipNYnHG-46" vertex="1">
          <mxGeometry y="0.38634146341463804" width="8.85365853658537" height="8.85365853658537" as="geometry" />
        </mxCell>
        <mxCell id="qlBSuscofpIT4ipNYnHG-48" value="CD_S" style="rounded=0;whiteSpace=wrap;html=1;textOpacity=50;fillColor=#f8cecc;strokeColor=#b85450;labelPosition=center;verticalLabelPosition=bottom;align=center;verticalAlign=top;fontSize=10;opacity=30;" parent="qlBSuscofpIT4ipNYnHG-46" vertex="1">
          <mxGeometry width="10" height="18.480000000000008" as="geometry" />
        </mxCell>
        <mxCell id="qlBSuscofpIT4ipNYnHG-49" value="S" style="whiteSpace=wrap;html=1;aspect=fixed;fontSize=9;fillColor=#fff2cc;strokeColor=#d6b656;fontStyle=0;rounded=1;" parent="qlBSuscofpIT4ipNYnHG-46" vertex="1">
          <mxGeometry y="9.240000000000009" width="8.85365853658537" height="8.85365853658537" as="geometry" />
        </mxCell>
        <mxCell id="qlBSuscofpIT4ipNYnHG-3" value="&lt;font style=&quot;font-size: 10px;&quot;&gt;MaS2&lt;/font&gt;" style="whiteSpace=wrap;html=1;aspect=fixed;fillColor=#dae8fc;strokeColor=#6c8ebf;textOpacity=50;labelPosition=center;verticalLabelPosition=top;align=center;verticalAlign=bottom;fontSize=10;" parent="qlBSuscofpIT4ipNYnHG-46" vertex="1">
          <mxGeometry x="-42" y="-34.52" width="72.56" height="72.56" as="geometry" />
        </mxCell>
        <mxCell id="sdUeL1DIZQgnhzty5HoK-26" value="" style="shape=link;html=1;rounded=0;exitX=1;exitY=0.5;exitDx=0;exitDy=0;entryX=0;entryY=0.5;entryDx=0;entryDy=0;" parent="qlBSuscofpIT4ipNYnHG-46" edge="1">
          <mxGeometry width="100" relative="1" as="geometry">
            <mxPoint x="-42" y="1.6400000000000006" as="sourcePoint" />
            <mxPoint x="4" y="1.6400000000000006" as="targetPoint" />
          </mxGeometry>
        </mxCell>
        <mxCell id="qlBSuscofpIT4ipNYnHG-51" value="" style="shape=link;html=1;rounded=0;exitX=1;exitY=0.5;exitDx=0;exitDy=0;" parent="1" edge="1">
          <mxGeometry width="100" relative="1" as="geometry">
            <mxPoint x="322" y="71" as="sourcePoint" />
            <mxPoint x="282" y="71" as="targetPoint" />
            <Array as="points">
              <mxPoint x="312" y="61" />
              <mxPoint x="292" y="61" />
            </Array>
          </mxGeometry>
        </mxCell>
        <mxCell id="qlBSuscofpIT4ipNYnHG-53" value="" style="shape=link;html=1;rounded=0;exitX=0.997;exitY=0.444;exitDx=0;exitDy=0;entryX=0;entryY=0.5;entryDx=0;entryDy=0;exitPerimeter=0;" parent="1" source="qlBSuscofpIT4ipNYnHG-1" target="qlBSuscofpIT4ipNYnHG-52" edge="1">
          <mxGeometry width="100" relative="1" as="geometry">
            <mxPoint x="82" y="71.76999999999998" as="sourcePoint" />
            <mxPoint x="162" y="71.76999999999998" as="targetPoint" />
          </mxGeometry>
        </mxCell>
        <mxCell id="qlBSuscofpIT4ipNYnHG-52" value="T1" style="verticalLabelPosition=middle;verticalAlign=middle;html=1;shape=mxgraph.basic.plaque;dx=6;whiteSpace=wrap;fillColor=#ffe6cc;strokeColor=#d79b00;labelPosition=center;align=center;fontSize=9;" parent="1" vertex="1">
          <mxGeometry x="111" y="67" width="40" height="10" as="geometry" />
        </mxCell>
        <mxCell id="sdUeL1DIZQgnhzty5HoK-1" value="Nbr Trains Max&lt;br&gt;= (2*G)-1 = &lt;b&gt;&lt;font color=&quot;#ff2f0f&quot;&gt;5&lt;/font&gt;&lt;/b&gt;" style="rounded=0;whiteSpace=wrap;html=1;" parent="1" vertex="1">
          <mxGeometry x="41.60000000000002" y="218.5" width="90" height="40" as="geometry" />
        </mxCell>
        <mxCell id="sdUeL1DIZQgnhzty5HoK-2" value="&lt;pre style=&quot;line-height: 100%; font-size: 11px;&quot;&gt;&lt;font face=&quot;Helvetica&quot;&gt;&lt;span style=&quot;background-color: initial;&quot;&gt;&lt;font style=&quot;font-size: 11px;&quot;&gt;- 2 Gares principales (MaS)&lt;br&gt;&lt;/font&gt;&lt;/span&gt;&lt;span style=&quot;background-color: initial;&quot;&gt;&lt;font style=&quot;font-size: 11px;&quot;&gt;- 1 Gares secondaires (SeS)&lt;/font&gt;&lt;/span&gt;&lt;span style=&quot;background-color: initial;&quot;&gt;&lt;font style=&quot;font-size: 11px;&quot;&gt;&lt;br&gt;&lt;/font&gt;&lt;/span&gt;&lt;span style=&quot;background-color: initial;&quot;&gt;&lt;font style=&quot;font-size: 11px;&quot;&gt;- 4 Switchs&lt;br&gt;&lt;/font&gt;&lt;/span&gt;&lt;span style=&quot;background-color: initial;&quot;&gt;&lt;font style=&quot;font-size: 11px;&quot;&gt;- 8 Feux&lt;/font&gt;&lt;/span&gt;&lt;/font&gt;&lt;/pre&gt;" style="rounded=0;whiteSpace=wrap;html=1;align=left;" parent="1" vertex="1">
          <mxGeometry x="41.60000000000002" y="160" width="140" height="56.5" as="geometry" />
        </mxCell>
        <mxCell id="sdUeL1DIZQgnhzty5HoK-3" value="TL_ML" style="group;labelPosition=center;verticalLabelPosition=bottom;align=center;verticalAlign=top;fontSize=9;textOpacity=50;horizontal=1;fontColor=#0DFF15;fontStyle=1" parent="1" vertex="1" connectable="0">
          <mxGeometry x="80" y="79.99999999999999" width="10" height="21" as="geometry" />
        </mxCell>
        <mxCell id="sdUeL1DIZQgnhzty5HoK-4" value="" style="rounded=0;whiteSpace=wrap;html=1;opacity=40;fillColor=#545454;strokeColor=#666666;fontColor=#333333;" parent="sdUeL1DIZQgnhzty5HoK-3" vertex="1">
          <mxGeometry width="10" height="21" as="geometry" />
        </mxCell>
        <mxCell id="sdUeL1DIZQgnhzty5HoK-5" value="" style="ellipse;whiteSpace=wrap;html=1;aspect=fixed;fillColor=#f8cecc;strokeColor=#b85450;" parent="sdUeL1DIZQgnhzty5HoK-3" vertex="1">
          <mxGeometry y="0.9130434782608695" width="9.130434782608695" height="9.130434782608695" as="geometry" />
        </mxCell>
        <mxCell id="sdUeL1DIZQgnhzty5HoK-6" value="" style="ellipse;whiteSpace=wrap;html=1;aspect=fixed;fillColor=#d5e8d4;strokeColor=#82b366;" parent="sdUeL1DIZQgnhzty5HoK-3" vertex="1">
          <mxGeometry x="0.42999999999999994" y="11.869565217391303" width="9.130434782608695" height="9.130434782608695" as="geometry" />
        </mxCell>
        <mxCell id="sdUeL1DIZQgnhzty5HoK-8" value="" style="group" parent="1" vertex="1" connectable="0">
          <mxGeometry x="150" y="74" width="10" height="18.480000000000004" as="geometry" />
        </mxCell>
        <mxCell id="qlBSuscofpIT4ipNYnHG-35" value="M" style="whiteSpace=wrap;html=1;aspect=fixed;fontSize=9;fillColor=#fff2cc;strokeColor=#d6b656;fontStyle=0;strokeWidth=1;rounded=1;" parent="sdUeL1DIZQgnhzty5HoK-8" vertex="1">
          <mxGeometry y="0.38634146341462383" width="8.85365853658537" height="8.85365853658537" as="geometry" />
        </mxCell>
        <mxCell id="qlBSuscofpIT4ipNYnHG-36" value="&lt;font color=&quot;#ffbc1f&quot; style=&quot;font-size: 9px;&quot;&gt;&lt;b&gt;SeS1_&lt;br&gt;Sw1&lt;/b&gt;&lt;/font&gt;" style="rounded=0;whiteSpace=wrap;html=1;textOpacity=50;fillColor=#f8cecc;strokeColor=#b85450;labelPosition=center;verticalLabelPosition=bottom;align=center;verticalAlign=top;fontSize=10;opacity=30;" parent="sdUeL1DIZQgnhzty5HoK-8" vertex="1">
          <mxGeometry width="10" height="18.480000000000008" as="geometry" />
        </mxCell>
        <mxCell id="qlBSuscofpIT4ipNYnHG-37" value="S" style="whiteSpace=wrap;html=1;aspect=fixed;fontSize=9;fillColor=#fff2cc;strokeColor=#d6b656;fontStyle=0;rounded=1;" parent="sdUeL1DIZQgnhzty5HoK-8" vertex="1">
          <mxGeometry y="9.240000000000009" width="8.85365853658537" height="8.85365853658537" as="geometry" />
        </mxCell>
        <mxCell id="sdUeL1DIZQgnhzty5HoK-9" value="SeS1TL&#xa;_ML1" style="group;fontSize=8;labelPosition=right;verticalLabelPosition=middle;align=left;verticalAlign=middle;textOpacity=50;fontStyle=1;fontColor=#0DFF15;" parent="1" vertex="1" connectable="0">
          <mxGeometry x="163" y="78" width="10" height="21" as="geometry" />
        </mxCell>
        <mxCell id="sdUeL1DIZQgnhzty5HoK-10" value="" style="rounded=0;whiteSpace=wrap;html=1;opacity=40;fillColor=#545454;strokeColor=#666666;fontColor=#333333;" parent="sdUeL1DIZQgnhzty5HoK-9" vertex="1">
          <mxGeometry width="10" height="21" as="geometry" />
        </mxCell>
        <mxCell id="sdUeL1DIZQgnhzty5HoK-11" value="" style="ellipse;whiteSpace=wrap;html=1;aspect=fixed;fillColor=#f8cecc;strokeColor=#b85450;" parent="sdUeL1DIZQgnhzty5HoK-9" vertex="1">
          <mxGeometry y="0.9130434782608695" width="9.130434782608695" height="9.130434782608695" as="geometry" />
        </mxCell>
        <mxCell id="sdUeL1DIZQgnhzty5HoK-12" value="" style="ellipse;whiteSpace=wrap;html=1;aspect=fixed;fillColor=#d5e8d4;strokeColor=#82b366;" parent="sdUeL1DIZQgnhzty5HoK-9" vertex="1">
          <mxGeometry x="0.42999999999999994" y="11.869565217391303" width="9.130434782608695" height="9.130434782608695" as="geometry" />
        </mxCell>
        <mxCell id="sdUeL1DIZQgnhzty5HoK-14" value="SeS1TL&#xa;_SL2" style="group;fontSize=8;labelPosition=center;verticalLabelPosition=top;align=center;verticalAlign=bottom;textOpacity=50;fontStyle=1;fontColor=#0DFF15;" parent="1" vertex="1" connectable="0">
          <mxGeometry x="223" y="45" width="10" height="21" as="geometry" />
        </mxCell>
        <mxCell id="sdUeL1DIZQgnhzty5HoK-15" value="" style="rounded=0;whiteSpace=wrap;html=1;opacity=40;fillColor=#545454;strokeColor=#666666;fontColor=#333333;" parent="sdUeL1DIZQgnhzty5HoK-14" vertex="1">
          <mxGeometry width="10" height="21" as="geometry" />
        </mxCell>
        <mxCell id="sdUeL1DIZQgnhzty5HoK-16" value="" style="ellipse;whiteSpace=wrap;html=1;aspect=fixed;fillColor=#f8cecc;strokeColor=#b85450;" parent="sdUeL1DIZQgnhzty5HoK-14" vertex="1">
          <mxGeometry y="0.9130434782608695" width="9.130434782608695" height="9.130434782608695" as="geometry" />
        </mxCell>
        <mxCell id="sdUeL1DIZQgnhzty5HoK-17" value="" style="ellipse;whiteSpace=wrap;html=1;aspect=fixed;fillColor=#d5e8d4;strokeColor=#82b366;" parent="sdUeL1DIZQgnhzty5HoK-14" vertex="1">
          <mxGeometry x="0.42999999999999994" y="11.869565217391303" width="9.130434782608695" height="9.130434782608695" as="geometry" />
        </mxCell>
        <mxCell id="GpRG82mVKlggTPOuo_MW-9" value="&lt;div style=&quot;line-height: 140%;&quot;&gt;&lt;font style=&quot;font-size: 12px;&quot; color=&quot;#2414ff&quot;&gt;Bruxelles&lt;/font&gt;&lt;br&gt;&lt;/div&gt;" style="whiteSpace=wrap;html=1;aspect=fixed;fillColor=#dae8fc;strokeColor=#6c8ebf;textOpacity=70;horizontal=1;verticalAlign=bottom;labelPosition=center;verticalLabelPosition=top;align=left;fontSize=9;movable=1;resizable=1;rotatable=1;deletable=1;editable=1;locked=0;connectable=1;" parent="1" vertex="1">
          <mxGeometry x="173" y="360" width="71.2" height="71.2" as="geometry" />
        </mxCell>
        <mxCell id="sdUeL1DIZQgnhzty5HoK-18" value="SeS1TL&#xa;_ML2" style="group;fontSize=8;labelPosition=center;verticalLabelPosition=top;align=center;verticalAlign=bottom;textOpacity=50;fontColor=#0DFF15;fontStyle=1;labelBorderColor=none;labelBackgroundColor=none;spacingRight=-39;spacing=0;" parent="1" vertex="1" connectable="0">
          <mxGeometry x="223" y="79" width="10" height="21" as="geometry" />
        </mxCell>
        <mxCell id="sdUeL1DIZQgnhzty5HoK-19" value="" style="rounded=0;whiteSpace=wrap;html=1;opacity=40;fillColor=#545454;strokeColor=#666666;fontColor=#333333;" parent="sdUeL1DIZQgnhzty5HoK-18" vertex="1">
          <mxGeometry width="10" height="21" as="geometry" />
        </mxCell>
        <mxCell id="sdUeL1DIZQgnhzty5HoK-20" value="" style="ellipse;whiteSpace=wrap;html=1;aspect=fixed;fillColor=#f8cecc;strokeColor=#b85450;" parent="sdUeL1DIZQgnhzty5HoK-18" vertex="1">
          <mxGeometry y="0.9130434782608695" width="9.130434782608695" height="9.130434782608695" as="geometry" />
        </mxCell>
        <mxCell id="sdUeL1DIZQgnhzty5HoK-21" value="" style="ellipse;whiteSpace=wrap;html=1;aspect=fixed;fillColor=#d5e8d4;strokeColor=#82b366;" parent="sdUeL1DIZQgnhzty5HoK-18" vertex="1">
          <mxGeometry x="0.42999999999999994" y="11.869565217391303" width="9.130434782608695" height="9.130434782608695" as="geometry" />
        </mxCell>
        <mxCell id="sdUeL1DIZQgnhzty5HoK-22" value="" style="group" parent="1" vertex="1" connectable="0">
          <mxGeometry x="235" y="78" width="10" height="18.480000000000004" as="geometry" />
        </mxCell>
        <mxCell id="sdUeL1DIZQgnhzty5HoK-23" value="M" style="whiteSpace=wrap;html=1;aspect=fixed;fontSize=9;fillColor=#fff2cc;strokeColor=#d6b656;fontStyle=0;strokeWidth=1;rounded=1;" parent="sdUeL1DIZQgnhzty5HoK-22" vertex="1">
          <mxGeometry y="0.38634146341462383" width="8.85365853658537" height="8.85365853658537" as="geometry" />
        </mxCell>
        <mxCell id="sdUeL1DIZQgnhzty5HoK-24" value="&lt;font style=&quot;font-size: 9px;&quot; color=&quot;#ffbc1f&quot;&gt;&lt;b&gt;SeS1_&lt;br&gt;Sw2&lt;/b&gt;&lt;/font&gt;" style="rounded=0;whiteSpace=wrap;html=1;textOpacity=50;fillColor=#f8cecc;strokeColor=#b85450;labelPosition=center;verticalLabelPosition=bottom;align=center;verticalAlign=top;fontSize=10;opacity=30;" parent="sdUeL1DIZQgnhzty5HoK-22" vertex="1">
          <mxGeometry width="10" height="18.480000000000008" as="geometry" />
        </mxCell>
        <mxCell id="sdUeL1DIZQgnhzty5HoK-25" value="S" style="whiteSpace=wrap;html=1;aspect=fixed;fontSize=9;fillColor=#fff2cc;strokeColor=#d6b656;fontStyle=0;rounded=1;" parent="sdUeL1DIZQgnhzty5HoK-22" vertex="1">
          <mxGeometry y="9.240000000000009" width="8.85365853658537" height="8.85365853658537" as="geometry" />
        </mxCell>
        <mxCell id="GpRG82mVKlggTPOuo_MW-10" value="&lt;div style=&quot;line-height: 140%;&quot;&gt;&lt;span style=&quot;background-color: initial;&quot;&gt;&lt;font color=&quot;#2414ff&quot; style=&quot;font-size: 12px;&quot;&gt;Namur&lt;/font&gt;&lt;/span&gt;&lt;/div&gt;" style="whiteSpace=wrap;html=1;aspect=fixed;fillColor=#dae8fc;strokeColor=#6c8ebf;textOpacity=70;horizontal=1;verticalAlign=middle;labelPosition=left;verticalLabelPosition=middle;align=center;fontSize=9;" parent="1" vertex="1">
          <mxGeometry x="170" y="569" width="71.2" height="71.2" as="geometry" />
        </mxCell>
        <mxCell id="GpRG82mVKlggTPOuo_MW-11" value="&lt;div style=&quot;line-height: 140%;&quot;&gt;&lt;span style=&quot;background-color: initial;&quot;&gt;&lt;font color=&quot;#2414ff&quot; style=&quot;font-size: 12px;&quot;&gt;Liège&lt;/font&gt;&lt;/span&gt;&lt;/div&gt;" style="whiteSpace=wrap;html=1;aspect=fixed;fillColor=#dae8fc;strokeColor=#6c8ebf;textOpacity=70;horizontal=1;verticalAlign=bottom;labelPosition=center;verticalLabelPosition=top;align=right;fontSize=9;" parent="1" vertex="1">
          <mxGeometry x="418.6" y="460" width="71.2" height="71.2" as="geometry" />
        </mxCell>
        <mxCell id="GpRG82mVKlggTPOuo_MW-12" value="&lt;p style=&quot;line-height: 190%;&quot;&gt;&lt;font color=&quot;#1c3aff&quot; style=&quot;font-size: 10px;&quot;&gt;Ottignies&lt;/font&gt;&lt;/p&gt;" style="whiteSpace=wrap;html=1;aspect=fixed;fillColor=#e1d5e7;strokeColor=#9673a6;textOpacity=80;labelPosition=left;verticalLabelPosition=middle;align=center;verticalAlign=middle;fontSize=9;spacing=0;" parent="1" vertex="1">
          <mxGeometry x="148" y="478.8" width="33.6" height="33.6" as="geometry" />
        </mxCell>
        <mxCell id="GpRG82mVKlggTPOuo_MW-13" value="&lt;p style=&quot;line-height: 190%;&quot;&gt;&lt;font color=&quot;#1c3aff&quot; style=&quot;font-size: 10px;&quot;&gt;Huy&lt;/font&gt;&lt;/p&gt;" style="whiteSpace=wrap;html=1;aspect=fixed;fillColor=#e1d5e7;strokeColor=#9673a6;textOpacity=70;labelPosition=center;verticalLabelPosition=bottom;align=center;verticalAlign=top;fontSize=9;" parent="1" vertex="1">
          <mxGeometry x="362.4" y="580" width="39.2" height="39.2" as="geometry" />
        </mxCell>
        <mxCell id="GpRG82mVKlggTPOuo_MW-14" value="&lt;p style=&quot;line-height: 190%;&quot;&gt;&lt;font color=&quot;#1c3aff&quot; style=&quot;font-size: 10px;&quot;&gt;Leuven&lt;/font&gt;&lt;/p&gt;" style="whiteSpace=wrap;html=1;aspect=fixed;fillColor=#e1d5e7;strokeColor=#9673a6;textOpacity=70;labelPosition=center;verticalLabelPosition=top;align=center;verticalAlign=bottom;fontSize=9;horizontal=1;spacing=0;spacingTop=0;" parent="1" vertex="1">
          <mxGeometry x="335.6" y="368.6" width="36" height="36" as="geometry" />
        </mxCell>
        <mxCell id="GpRG82mVKlggTPOuo_MW-17" value="" style="shape=link;html=1;rounded=0;exitX=1;exitY=0.5;exitDx=0;exitDy=0;" parent="1" source="GpRG82mVKlggTPOuo_MW-14" edge="1">
          <mxGeometry width="100" relative="1" as="geometry">
            <mxPoint x="407.6" y="414" as="sourcePoint" />
            <mxPoint x="400" y="450" as="targetPoint" />
          </mxGeometry>
        </mxCell>
        <mxCell id="GpRG82mVKlggTPOuo_MW-18" value="" style="shape=link;html=1;rounded=0;exitX=0.5;exitY=0;exitDx=0;exitDy=0;entryX=1;entryY=0.5;entryDx=0;entryDy=0;" parent="1" source="GpRG82mVKlggTPOuo_MW-10" edge="1">
          <mxGeometry width="100" relative="1" as="geometry">
            <mxPoint x="170.66999999999996" y="603" as="sourcePoint" />
            <mxPoint x="241.66999999999996" y="603" as="targetPoint" />
          </mxGeometry>
        </mxCell>
        <mxCell id="GpRG82mVKlggTPOuo_MW-19" value="" style="shape=link;html=1;rounded=0;entryX=0;entryY=0.5;entryDx=0;entryDy=0;" parent="1" target="GpRG82mVKlggTPOuo_MW-14" edge="1">
          <mxGeometry width="100" relative="1" as="geometry">
            <mxPoint x="300" y="420" as="sourcePoint" />
            <mxPoint x="280.5999999999999" y="395.31" as="targetPoint" />
          </mxGeometry>
        </mxCell>
        <mxCell id="j0dvZMMd6ELGNtkcVlBc-1" value="" style="shape=link;html=1;rounded=0;exitX=0.985;exitY=0.576;exitDx=0;exitDy=0;entryX=0.5;entryY=0;entryDx=0;entryDy=0;exitPerimeter=0;" parent="1" source="GpRG82mVKlggTPOuo_MW-9" target="GpRG82mVKlggTPOuo_MW-11" edge="1">
          <mxGeometry width="100" relative="1" as="geometry">
            <mxPoint x="250.59999999999997" y="500" as="sourcePoint" />
            <mxPoint x="321.59999999999997" y="500" as="targetPoint" />
          </mxGeometry>
        </mxCell>
        <mxCell id="j0dvZMMd6ELGNtkcVlBc-2" value="" style="shape=link;html=1;rounded=0;exitX=0;exitY=0.5;exitDx=0;exitDy=0;entryX=1;entryY=0.5;entryDx=0;entryDy=0;" parent="1" source="GpRG82mVKlggTPOuo_MW-14" target="GpRG82mVKlggTPOuo_MW-14" edge="1">
          <mxGeometry width="100" relative="1" as="geometry">
            <mxPoint x="304.59999999999997" y="340" as="sourcePoint" />
            <mxPoint x="375.59999999999997" y="340" as="targetPoint" />
          </mxGeometry>
        </mxCell>
        <mxCell id="j0dvZMMd6ELGNtkcVlBc-3" value="" style="shape=link;html=1;rounded=0;exitX=0.5;exitY=1;exitDx=0;exitDy=0;entryX=0.5;entryY=0;entryDx=0;entryDy=0;" parent="1" source="GpRG82mVKlggTPOuo_MW-9" target="GpRG82mVKlggTPOuo_MW-10" edge="1">
          <mxGeometry width="100" relative="1" as="geometry">
            <mxPoint x="232.99999999999994" y="500" as="sourcePoint" />
            <mxPoint x="303.99999999999994" y="500" as="targetPoint" />
          </mxGeometry>
        </mxCell>
        <mxCell id="j0dvZMMd6ELGNtkcVlBc-4" value="" style="shape=link;html=1;rounded=0;exitX=0.5;exitY=0;exitDx=0;exitDy=0;entryX=0.5;entryY=1;entryDx=0;entryDy=0;" parent="1" source="GpRG82mVKlggTPOuo_MW-12" target="GpRG82mVKlggTPOuo_MW-9" edge="1">
          <mxGeometry width="100" relative="1" as="geometry">
            <mxPoint x="112.59999999999997" y="450" as="sourcePoint" />
            <mxPoint x="183.59999999999997" y="450" as="targetPoint" />
          </mxGeometry>
        </mxCell>
        <mxCell id="j0dvZMMd6ELGNtkcVlBc-5" value="" style="shape=link;html=1;rounded=0;exitX=0.5;exitY=1;exitDx=0;exitDy=0;entryX=0.5;entryY=0;entryDx=0;entryDy=0;" parent="1" source="GpRG82mVKlggTPOuo_MW-12" target="GpRG82mVKlggTPOuo_MW-12" edge="1">
          <mxGeometry width="100" relative="1" as="geometry">
            <mxPoint x="59" y="560.6" as="sourcePoint" />
            <mxPoint x="111" y="522.6" as="targetPoint" />
          </mxGeometry>
        </mxCell>
        <mxCell id="j0dvZMMd6ELGNtkcVlBc-6" value="" style="shape=link;html=1;rounded=0;exitX=0.5;exitY=0;exitDx=0;exitDy=0;entryX=0.5;entryY=1;entryDx=0;entryDy=0;" parent="1" source="GpRG82mVKlggTPOuo_MW-10" target="GpRG82mVKlggTPOuo_MW-12" edge="1">
          <mxGeometry width="100" relative="1" as="geometry">
            <mxPoint x="190" y="564" as="sourcePoint" />
            <mxPoint x="190" y="510" as="targetPoint" />
          </mxGeometry>
        </mxCell>
        <mxCell id="j0dvZMMd6ELGNtkcVlBc-7" value="" style="shape=link;html=1;rounded=0;exitX=1;exitY=0.5;exitDx=0;exitDy=0;entryX=0.5;entryY=1;entryDx=0;entryDy=0;" parent="1" source="GpRG82mVKlggTPOuo_MW-10" target="GpRG82mVKlggTPOuo_MW-11" edge="1">
          <mxGeometry width="100" relative="1" as="geometry">
            <mxPoint x="281.99999999999994" y="540" as="sourcePoint" />
            <mxPoint x="352.99999999999994" y="540" as="targetPoint" />
          </mxGeometry>
        </mxCell>
        <mxCell id="j0dvZMMd6ELGNtkcVlBc-8" value="" style="shape=link;html=1;rounded=0;exitX=0;exitY=0.5;exitDx=0;exitDy=0;entryX=1;entryY=0.5;entryDx=0;entryDy=0;" parent="1" source="GpRG82mVKlggTPOuo_MW-13" target="GpRG82mVKlggTPOuo_MW-13" edge="1">
          <mxGeometry width="100" relative="1" as="geometry">
            <mxPoint x="414" y="570" as="sourcePoint" />
            <mxPoint x="485" y="570" as="targetPoint" />
          </mxGeometry>
        </mxCell>
        <mxCell id="j0dvZMMd6ELGNtkcVlBc-9" value="" style="shape=link;html=1;rounded=0;exitX=1;exitY=0.5;exitDx=0;exitDy=0;entryX=0.5;entryY=1;entryDx=0;entryDy=0;" parent="1" source="GpRG82mVKlggTPOuo_MW-13" target="GpRG82mVKlggTPOuo_MW-11" edge="1">
          <mxGeometry width="100" relative="1" as="geometry">
            <mxPoint x="407.6" y="568.6" as="sourcePoint" />
            <mxPoint x="461.6" y="568.6" as="targetPoint" />
          </mxGeometry>
        </mxCell>
        <mxCell id="j0dvZMMd6ELGNtkcVlBc-10" value="" style="shape=link;html=1;rounded=0;entryX=0;entryY=0.5;entryDx=0;entryDy=0;exitX=1;exitY=0.5;exitDx=0;exitDy=0;" parent="1" source="GpRG82mVKlggTPOuo_MW-10" target="GpRG82mVKlggTPOuo_MW-13" edge="1">
          <mxGeometry width="100" relative="1" as="geometry">
            <mxPoint x="260" y="610" as="sourcePoint" />
            <mxPoint x="310.28" y="620" as="targetPoint" />
          </mxGeometry>
        </mxCell>
        <mxCell id="j0dvZMMd6ELGNtkcVlBc-11" value="" style="shape=link;html=1;rounded=0;exitX=0.5;exitY=1;exitDx=0;exitDy=0;entryX=1;entryY=0.5;entryDx=0;entryDy=0;" parent="1" source="GpRG82mVKlggTPOuo_MW-9" target="GpRG82mVKlggTPOuo_MW-9" edge="1">
          <mxGeometry width="100" relative="1" as="geometry">
            <mxPoint x="167" y="479" as="sourcePoint" />
            <mxPoint x="219" y="441" as="targetPoint" />
          </mxGeometry>
        </mxCell>
        <mxCell id="j0dvZMMd6ELGNtkcVlBc-12" value="" style="shape=link;html=1;rounded=0;exitX=0.5;exitY=0;exitDx=0;exitDy=0;entryX=0.5;entryY=1;entryDx=0;entryDy=0;" parent="1" source="GpRG82mVKlggTPOuo_MW-11" target="GpRG82mVKlggTPOuo_MW-11" edge="1">
          <mxGeometry width="100" relative="1" as="geometry">
            <mxPoint x="353" y="442" as="sourcePoint" />
            <mxPoint x="350" y="580" as="targetPoint" />
          </mxGeometry>
        </mxCell>
        <mxCell id="j0dvZMMd6ELGNtkcVlBc-13" value="" style="shape=link;html=1;rounded=0;" parent="1" edge="1">
          <mxGeometry width="100" relative="1" as="geometry">
            <mxPoint x="190" y="410" as="sourcePoint" />
            <mxPoint x="220" y="380" as="targetPoint" />
          </mxGeometry>
        </mxCell>
        <mxCell id="j0dvZMMd6ELGNtkcVlBc-14" value="" style="shape=link;html=1;rounded=0;entryX=1;entryY=0.5;entryDx=0;entryDy=0;" parent="1" target="GpRG82mVKlggTPOuo_MW-9" edge="1">
          <mxGeometry width="100" relative="1" as="geometry">
            <mxPoint x="220" y="380" as="sourcePoint" />
            <mxPoint x="233" y="369.6" as="targetPoint" />
            <Array as="points">
              <mxPoint x="230" y="380" />
            </Array>
          </mxGeometry>
        </mxCell>
        <mxCell id="j0dvZMMd6ELGNtkcVlBc-15" value="" style="shape=link;html=1;rounded=0;entryX=0.5;entryY=1;entryDx=0;entryDy=0;" parent="1" target="GpRG82mVKlggTPOuo_MW-9" edge="1">
          <mxGeometry width="100" relative="1" as="geometry">
            <mxPoint x="190" y="410" as="sourcePoint" />
            <mxPoint x="200" y="420" as="targetPoint" />
            <Array as="points">
              <mxPoint x="190" y="420" />
            </Array>
          </mxGeometry>
        </mxCell>
      </root>
    </mxGraphModel>
  </diagram>
</mxfile>
